<svg width="25" height="24" viewBox="0 0 25 24" fill="none" xmlns="http://www.w3.org/2000/svg">
<g clip-path="url(#clip0_19_174)">
<path d="M12.25 12C13.4367 12 14.5967 11.6481 15.5834 10.9888C16.5701 10.3295 17.3392 9.39246 17.7933 8.2961C18.2474 7.19975 18.3662 5.99335 18.1347 4.82946C17.9032 3.66558 17.3318 2.59648 16.4926 1.75736C15.6535 0.918247 14.5844 0.346802 13.4205 0.115291C12.2567 -0.11622 11.0503 0.00259972 9.9539 0.456726C8.85754 0.910851 7.92047 1.67989 7.26118 2.66658C6.60189 3.65328 6.25 4.81331 6.25 6C6.25159 7.59081 6.88424 9.11602 8.00911 10.2409C9.13399 11.3658 10.6592 11.9984 12.25 12ZM12.25 2C13.0411 2 13.8145 2.2346 14.4723 2.67412C15.1301 3.11365 15.6428 3.73836 15.9455 4.46927C16.2483 5.20017 16.3275 6.00444 16.1731 6.78036C16.0188 7.55629 15.6378 8.26902 15.0784 8.82843C14.519 9.38784 13.8063 9.7688 13.0304 9.92314C12.2544 10.0775 11.4502 9.99827 10.7193 9.69552C9.98836 9.39277 9.36365 8.88008 8.92412 8.22228C8.4846 7.56449 8.25 6.79113 8.25 6C8.25 4.93914 8.67143 3.92172 9.42157 3.17158C10.1717 2.42143 11.1891 2 12.25 2Z" fill="#3D3D3E"/>
<path d="M12.25 14C9.86386 14.0026 7.57622 14.9517 5.88896 16.639C4.20171 18.3262 3.25265 20.6139 3.25 23C3.25 23.2652 3.35536 23.5196 3.54289 23.7071C3.73043 23.8946 3.98478 24 4.25 24C4.51522 24 4.76957 23.8946 4.95711 23.7071C5.14464 23.5196 5.25 23.2652 5.25 23C5.25 21.1435 5.9875 19.363 7.30025 18.0503C8.61301 16.7375 10.3935 16 12.25 16C14.1065 16 15.887 16.7375 17.1997 18.0503C18.5125 19.363 19.25 21.1435 19.25 23C19.25 23.2652 19.3554 23.5196 19.5429 23.7071C19.7304 23.8946 19.9848 24 20.25 24C20.5152 24 20.7696 23.8946 20.9571 23.7071C21.1446 23.5196 21.25 23.2652 21.25 23C21.2474 20.6139 20.2983 18.3262 18.611 16.639C16.9238 14.9517 14.6361 14.0026 12.25 14Z" fill="#3D3D3E"/>
</g>
<defs>
<clipPath id="clip0_19_174">
<rect width="24" height="24" fill="white" transform="translate(0.25)"/>
</clipPath>
</defs>
</svg>
