<svg width="24" height="24" viewBox="0 0 24 24" fill="none" xmlns="http://www.w3.org/2000/svg">
<path d="M0.880991 0.882014C1.23951 0.519141 1.68557 0.254869 2.17605 0.11473C2.66654 -0.0254085 3.18488 -0.0366769 3.68099 0.0820139L19.681 3.45201C20.6024 3.57838 21.4703 3.95949 22.1868 4.55243C22.9033 5.14536 23.4401 5.92657 23.7366 6.80808C24.0332 7.68959 24.0777 8.63638 23.8652 9.54183C23.6527 10.4473 23.1917 11.2754 22.534 11.933L20.816 13.65C20.723 13.743 20.6493 13.8534 20.599 13.9748C20.5487 14.0963 20.5229 14.2265 20.523 14.358V17.526C20.5208 17.9714 20.4182 18.4107 20.223 18.811L20.231 18.818L20.205 18.844C19.912 19.4331 19.4334 19.9096 18.843 20.2L18.817 20.226L18.81 20.218C18.4096 20.4133 17.9704 20.5158 17.525 20.518H14.357C14.0919 20.5178 13.8376 20.6228 13.65 20.81L11.933 22.527C11.4725 22.9926 10.9243 23.3625 10.3202 23.6153C9.71608 23.8681 9.06788 23.9989 8.41299 24C7.86724 23.9993 7.32521 23.9102 6.80799 23.736C5.93455 23.4492 5.15862 22.924 4.56776 22.2197C3.97689 21.5154 3.59459 20.66 3.46399 19.75L0.0889912 3.71501C-0.0358601 3.21465 -0.0285034 2.69043 0.110344 2.19378C0.249191 1.69712 0.514757 1.24508 0.880991 0.882014ZM19.4 12.238L21.119 10.521C21.5193 10.1304 21.7998 9.63366 21.9277 9.08917C22.0556 8.54468 22.0255 7.97501 21.841 7.44701C21.6621 6.90534 21.3314 6.42644 20.8882 6.06728C20.445 5.70811 19.908 5.4838 19.341 5.42101L3.49999 2.08601L18.525 17.113V14.358C18.5235 13.9644 18.6 13.5743 18.7502 13.2104C18.9004 12.8465 19.1213 12.516 19.4 12.238ZM5.42899 19.408C5.50577 19.9604 5.73498 20.4804 6.09089 20.9097C6.4468 21.339 6.91532 21.6606 7.44386 21.8384C7.9724 22.0162 8.54004 22.0431 9.08306 21.9163C9.62607 21.7894 10.123 21.5136 10.518 21.12L12.238 19.4C12.5156 19.1209 12.8458 18.8995 13.2096 18.7488C13.5733 18.5981 13.9633 18.521 14.357 18.522H17.112L2.08499 3.50001L5.42899 19.408Z" fill="#47454F"/>
</svg>
