<svg width="24" height="24" viewBox="0 0 24 24" fill="none" xmlns="http://www.w3.org/2000/svg">
<g clip-path="url(#clip0_398_608)">
<path fill-rule="evenodd" clip-rule="evenodd" d="M3.53712 3.488C5.78312 1.24 8.76912 0.001 11.9501 0C18.5051 0 23.8401 5.334 23.8431 11.892C23.8441 13.988 23.2961 16.034 22.2551 17.838L23.9431 24L17.6391 22.346C15.9021 23.294 13.9461 23.793 11.9561 23.794H11.9511C5.39712 23.794 0.0611153 18.459 0.058115 11.901C0.0561142 8.724 1.29211 5.735 3.53712 3.488ZM11.9501 21.785H11.9541C13.7281 21.785 15.4671 21.308 16.9851 20.407L17.3461 20.193L21.0871 21.174L20.0881 17.526L20.3231 17.152C21.3131 15.578 21.8351 13.759 21.8341 11.892C21.8321 6.442 17.3971 2.008 11.9451 2.008C9.30511 2.008 6.82311 3.038 4.95712 4.906C3.09112 6.775 2.06412 9.258 2.06511 11.899C2.06812 17.351 6.50212 21.785 11.9501 21.785ZM6.52811 14.382C6.82512 14.233 8.28612 13.514 8.55912 13.415C8.83112 13.316 9.02911 13.266 9.22812 13.563C9.42712 13.86 9.99512 14.53 10.1691 14.729C10.3421 14.927 10.5161 14.952 10.8131 14.803C11.1101 14.654 12.0681 14.341 13.2031 13.328C14.0861 12.54 14.6831 11.567 14.8561 11.269C15.0291 10.971 14.8741 10.811 14.7261 10.663C14.5921 10.53 14.4291 10.316 14.2801 10.142C14.1301 9.97 14.0811 9.846 13.9811 9.647C13.8821 9.449 13.9311 9.275 14.0061 9.126C14.0811 8.978 14.6751 7.515 14.9221 6.92C15.1631 6.34 15.4081 6.419 15.5911 6.41C15.7641 6.401 15.9621 6.4 16.1611 6.4C16.3591 6.4 16.6811 6.474 16.9531 6.772C17.2251 7.07 17.9931 7.789 17.9931 9.251C17.9931 10.714 16.9281 12.127 16.7801 12.325C16.6321 12.523 14.6851 15.525 11.7041 16.812C10.9951 17.118 10.4411 17.301 10.0101 17.438C9.29812 17.664 8.65012 17.632 8.13811 17.556C7.56712 17.471 6.38011 16.837 6.13211 16.143C5.88412 15.449 5.88411 14.853 5.95911 14.73C6.03311 14.605 6.23111 14.531 6.52811 14.382Z" fill="#47454F"/>
</g>
<defs>
<clipPath id="clip0_398_608">
<rect width="24" height="24" fill="white" transform="matrix(-1 0 0 1 24 0)"/>
</clipPath>
</defs>
</svg>
