<svg width="25" height="24" viewBox="0 0 25 24" fill="none" xmlns="http://www.w3.org/2000/svg">
<path d="M7.75 21V19H11.75V15.9C10.9333 15.7167 10.2042 15.3708 9.5625 14.8625C8.92083 14.3542 8.45 13.7167 8.15 12.95C6.9 12.8 5.85417 12.2542 5.0125 11.3125C4.17083 10.3708 3.75 9.26667 3.75 8V7C3.75 6.45 3.94583 5.97917 4.3375 5.5875C4.72917 5.19583 5.2 5 5.75 5H7.75V3H17.75V5H19.75C20.3 5 20.7708 5.19583 21.1625 5.5875C21.5542 5.97917 21.75 6.45 21.75 7V8C21.75 9.26667 21.3292 10.3708 20.4875 11.3125C19.6458 12.2542 18.6 12.8 17.35 12.95C17.05 13.7167 16.5792 14.3542 15.9375 14.8625C15.2958 15.3708 14.5667 15.7167 13.75 15.9V19H17.75V21H7.75ZM7.75 10.8V7H5.75V8C5.75 8.63333 5.93333 9.20417 6.3 9.7125C6.66667 10.2208 7.15 10.5833 7.75 10.8ZM12.75 14C13.5833 14 14.2917 13.7083 14.875 13.125C15.4583 12.5417 15.75 11.8333 15.75 11V5H9.75V11C9.75 11.8333 10.0417 12.5417 10.625 13.125C11.2083 13.7083 11.9167 14 12.75 14ZM17.75 10.8C18.35 10.5833 18.8333 10.2208 19.2 9.7125C19.5667 9.20417 19.75 8.63333 19.75 8V7H17.75V10.8Z" fill="#3D3D3E"/>
</svg>
