<svg width="278" height="80" viewBox="0 0 278 80" fill="none" xmlns="http://www.w3.org/2000/svg">
<g clip-path="url(#clip0_321_602)">
<path d="M264.826 24.693C265.884 24.6625 266.966 24.6164 268.023 24.6591C269.329 24.7117 270.703 25.2974 271.575 26.2895C272.382 27.2077 272.749 28.4888 272.626 29.7022C272.502 30.921 271.835 32.078 270.886 32.8356C269.948 33.5841 268.703 33.9502 267.515 33.7614C266.33 33.573 265.181 32.8083 264.517 31.805C263.575 30.3818 263.871 28.667 264.194 27.1004C262.148 27.0542 260.036 27.0972 257.993 27.2048L257.97 27.3916C258.139 27.8662 258.336 28.3607 258.426 28.8575C258.449 28.9904 258.465 29.124 258.474 29.2584C258.484 29.3929 258.486 29.5276 258.482 29.6623C258.478 29.7971 258.467 29.9313 258.45 30.0649C258.432 30.1985 258.408 30.331 258.377 30.4623C258.346 30.5935 258.309 30.7228 258.265 30.8501C258.221 30.9775 258.171 31.1024 258.115 31.2248C258.059 31.347 257.996 31.4661 257.928 31.5821C257.86 31.698 257.786 31.8102 257.706 31.9186C256.978 32.9142 255.882 33.7162 254.648 33.893C254.512 33.9133 254.376 33.9266 254.239 33.9331C254.101 33.9396 253.964 33.939 253.827 33.9314C253.69 33.9238 253.554 33.9093 253.418 33.8878C253.283 33.8664 253.149 33.8381 253.016 33.803C252.883 33.7679 252.752 33.7261 252.624 33.6777C252.495 33.6293 252.369 33.5745 252.246 33.5132C252.123 33.4521 252.004 33.3848 251.887 33.3113C251.771 33.2379 251.659 33.1587 251.55 33.0739C251.486 33.0234 251.422 32.9712 251.36 32.9173C251.298 32.8636 251.238 32.8083 251.179 32.7513C251.12 32.6944 251.062 32.6359 251.006 32.5759C250.949 32.516 250.895 32.4546 250.842 32.3917C250.789 32.3289 250.738 32.2649 250.688 32.1996C250.638 32.1341 250.59 32.0674 250.544 31.9994C250.497 31.9315 250.453 31.8624 250.41 31.7922C250.367 31.722 250.326 31.6507 250.287 31.5784C250.248 31.5059 250.211 31.4325 250.176 31.3583C250.14 31.2839 250.107 31.2087 250.075 31.1328C250.044 31.0567 250.014 30.9798 249.986 30.9022C249.959 30.8248 249.933 30.7466 249.91 30.6676C249.886 30.5887 249.864 30.5092 249.845 30.4293C249.825 30.3492 249.808 30.2688 249.793 30.1879C249.777 30.107 249.764 30.0258 249.753 29.9442C249.741 29.8626 249.732 29.7807 249.725 29.6985C249.626 28.4638 249.951 27.1664 250.804 26.246C251.448 25.5502 252.322 25.1331 253.234 24.9284C254.902 24.5543 256.869 24.7718 258.581 24.7727C260.663 24.7767 262.745 24.7501 264.826 24.693Z" fill="#020203"/>
<path d="M267.498 27.372C267.848 27.3384 268.253 27.3014 268.601 27.364C269.188 27.4696 269.766 27.9431 270.048 28.4624C270.078 28.5163 270.104 28.5716 270.128 28.6284C270.152 28.6851 270.173 28.743 270.19 28.802C270.208 28.861 270.222 28.9208 270.233 28.9814C270.244 29.0419 270.252 29.1028 270.256 29.1641C270.261 29.2256 270.262 29.2871 270.26 29.3486C270.258 29.4101 270.252 29.4714 270.244 29.5326C270.235 29.5935 270.223 29.6537 270.208 29.7133C270.193 29.7729 270.174 29.8316 270.153 29.8893C269.903 30.574 269.443 30.8544 268.823 31.171C268.476 31.2612 268.037 31.3856 267.682 31.3074C267.242 31.2103 266.83 30.8558 266.597 30.4789C266.25 29.918 266.217 29.2208 266.391 28.5953C266.578 27.924 266.925 27.6914 267.498 27.372Z" fill="#FCF9F2"/>
<path d="M253.236 27.3523C253.608 27.2982 254.023 27.2646 254.396 27.3065C254.994 27.3739 255.563 27.7631 255.9 28.2545C255.934 28.3025 255.965 28.3523 255.994 28.4037C256.022 28.4549 256.048 28.5075 256.072 28.5614C256.095 28.6155 256.115 28.6705 256.133 28.7265C256.151 28.7825 256.166 28.8393 256.178 28.8968C256.19 28.9545 256.199 29.0126 256.205 29.071C256.211 29.1295 256.215 29.1881 256.215 29.247C256.215 29.3058 256.212 29.3645 256.207 29.4232C256.201 29.4817 256.192 29.5397 256.181 29.5974C256.013 30.3977 255.568 30.8154 254.918 31.2547C254.553 31.3848 254.134 31.5237 253.741 31.4659C253.222 31.3899 252.765 31.0992 252.456 30.6736C252.074 30.1477 251.967 29.481 252.092 28.8481C252.245 28.08 252.6 27.7591 253.236 27.3523Z" fill="#FCF9F2"/>
<path d="M231.676 61.5203C231.254 61.0429 230.55 60.6155 230.059 60.1865C228.15 58.5165 226.47 56.7573 225.324 54.4581C222.979 49.752 222.516 43.6664 224.198 38.6716C225.649 34.3639 228.973 30.1147 233.066 28.0937C237.164 26.0706 242.73 25.2857 247.106 26.8009C247.32 26.9278 247.656 27.0412 247.726 27.29C247.922 27.9898 247.497 28.935 247.407 29.6461C242.269 28.6927 237.493 28.5486 232.991 31.6652C229.583 34.0242 227.034 37.8554 226.325 41.9664C225.561 46.3912 226.391 51.2177 228.98 54.9239C231.408 58.3992 235.503 61.0964 239.679 61.7919C244.185 62.5426 248.55 61.5212 252.237 58.81C255.601 56.3362 258.143 52.4447 258.767 48.2733C259.241 45.1055 258.829 40.6292 256.92 37.9451C256.77 37.7344 256.59 37.5442 256.409 37.36C257.209 36.6819 258.008 36.0142 258.851 35.3916C261.554 40.3103 262.617 45.5157 261.033 51.0363C260.942 51.3428 260.844 51.6469 260.739 51.9485C260.633 52.2503 260.521 52.5492 260.401 52.8453C260.281 53.1414 260.153 53.4342 260.019 53.7239C259.885 54.0137 259.743 54.3 259.595 54.5828C259.447 54.8658 259.292 55.1449 259.13 55.4201C258.968 55.6951 258.8 55.966 258.625 56.2329C258.45 56.4998 258.268 56.7621 258.08 57.0201C257.892 57.278 257.698 57.5311 257.498 57.7794C257.298 58.0276 257.092 58.2709 256.88 58.5091C256.668 58.7472 256.45 58.9799 256.227 59.2071C256.003 59.4345 255.775 59.6563 255.54 59.8725C255.306 60.0885 255.067 60.2986 254.822 60.5028C254.578 60.7072 254.329 60.9054 254.075 61.0972C253.82 61.2891 253.562 61.4747 253.299 61.6538C253.036 61.833 252.768 62.0056 252.497 62.1717C252.225 62.3376 251.95 62.4967 251.67 62.6491C247.255 65.0582 241.68 65.45 236.904 63.9775C235.047 63.4047 233.328 62.5407 231.676 61.5203Z" fill="#020203"/>
<path d="M274.312 32.8378C277.997 40.1734 278.56 49.1533 275.992 56.9754C273.278 65.2472 266.905 72.2272 259.211 76.1144C258.944 76.2488 258.676 76.3799 258.405 76.5076C258.135 76.6351 257.863 76.7594 257.59 76.8803C257.317 77.0012 257.042 77.1186 256.766 77.2324C256.49 77.3465 256.212 77.4571 255.933 77.5641C255.654 77.6712 255.374 77.7748 255.093 77.875C254.811 77.975 254.528 78.0715 254.244 78.1645C253.961 78.2575 253.676 78.3469 253.389 78.4327C253.103 78.5185 252.816 78.6008 252.528 78.6796C252.24 78.7583 251.951 78.8334 251.661 78.9048C251.371 78.9763 251.08 79.0442 250.789 79.1083C250.497 79.1725 250.205 79.233 249.912 79.2899C249.619 79.3469 249.325 79.4001 249.03 79.4497C248.736 79.4992 248.441 79.545 248.145 79.5872C247.85 79.6293 247.554 79.6677 247.257 79.7025C246.961 79.7372 246.664 79.7682 246.367 79.7956C246.069 79.8229 245.772 79.8465 245.474 79.8665C245.176 79.8864 244.878 79.9026 244.579 79.9152C244.281 79.9277 243.983 79.9364 243.684 79.9413C243.386 79.9463 243.087 79.9475 242.789 79.945C242.491 79.9426 242.192 79.9364 241.894 79.9265C241.595 79.9167 241.297 79.903 240.999 79.8855C240.701 79.8681 240.403 79.847 240.106 79.8223C239.808 79.7975 239.511 79.7689 239.214 79.7366C238.918 79.7044 238.621 79.6684 238.325 79.6287C238.029 79.5891 237.734 79.5457 237.439 79.4986C237.144 79.4516 236.85 79.4009 236.556 79.3466C236.263 79.2921 235.97 79.2341 235.678 79.1724C235.386 79.1107 235.094 79.0453 234.804 78.9762C234.513 78.9073 234.224 78.8347 233.935 78.7584C233.646 78.6821 233.358 78.6023 233.072 78.519C232.785 78.4355 232.499 78.3484 232.215 78.2579C231.93 78.1674 231.646 78.0732 231.364 77.9755C231.086 77.8812 230.809 77.7834 230.534 77.6823C230.258 77.5809 229.984 77.4762 229.711 77.3682C229.438 77.2602 229.167 77.1489 228.896 77.0343C228.626 76.9195 228.357 76.8013 228.09 76.6798C227.822 76.5586 227.557 76.4339 227.292 76.3057C227.028 76.1778 226.765 76.0466 226.504 75.912C226.243 75.7776 225.984 75.6399 225.726 75.4989C225.468 75.3579 225.212 75.2138 224.958 75.0665C224.704 74.9192 224.451 74.7688 224.201 74.6152C223.95 74.4617 223.702 74.3051 223.455 74.1455C223.208 73.9858 222.964 73.8231 222.721 73.6572C222.478 73.4915 222.238 73.3228 221.999 73.151C221.76 72.9792 221.524 72.8045 221.29 72.6269C221.055 72.4494 220.823 72.269 220.593 72.0857C220.363 71.9023 220.136 71.7161 219.91 71.5271C219.685 71.3381 219.462 71.1463 219.241 70.9517C219.021 70.7572 218.802 70.56 218.587 70.3601C218.371 70.1603 218.157 69.9577 217.947 69.7523C217.736 69.5471 217.527 69.3393 217.322 69.1288C217.116 68.9185 216.912 68.7057 216.712 68.4902C216.511 68.2748 216.314 68.0569 216.118 67.8366C215.923 67.6162 215.73 67.3935 215.541 67.1684C215.351 66.9433 215.164 66.7159 214.98 66.4863C214.795 66.2564 214.614 66.0244 214.435 65.7902C214.257 65.556 214.081 65.3196 213.908 65.081C213.736 64.8424 213.566 64.6017 213.399 64.359C213.232 64.116 213.068 63.8712 212.907 63.6245C212.746 63.3775 212.588 63.1287 212.433 62.878C212.278 62.6273 212.127 62.3745 211.978 62.1198C211.829 61.8653 211.684 61.609 211.542 61.3509C211.399 61.0928 211.26 60.8329 211.124 60.5714C210.988 60.3098 210.855 60.0466 210.726 59.7816C206.718 51.5365 205.919 42.1805 208.906 33.438C208.996 33.1761 209.088 32.9153 209.184 32.6556C209.281 32.396 209.38 32.1376 209.482 31.8804C209.585 31.6232 209.69 31.3674 209.799 31.1129C209.907 30.8584 210.019 30.6053 210.134 30.3536C210.249 30.1019 210.367 29.8517 210.488 29.6028C210.609 29.3542 210.734 29.107 210.861 28.8612C210.988 28.6156 211.118 28.3716 211.252 28.1292C211.385 27.8869 211.521 27.6462 211.66 27.4072C211.799 27.1683 211.942 26.931 212.087 26.6955C212.232 26.4602 212.38 26.2266 212.531 25.9949C212.681 25.7631 212.835 25.5333 212.991 25.3053C213.148 25.0774 213.307 24.8515 213.469 24.6277C213.631 24.4038 213.796 24.1819 213.964 23.9621C214.131 23.7423 214.301 23.5246 214.474 23.309C214.647 23.0936 214.823 22.8803 215.001 22.669C215.179 22.458 215.36 22.2491 215.543 22.0424C215.726 21.8359 215.912 21.6316 216.101 21.4295C216.289 21.2275 216.48 21.0279 216.673 20.8307C216.866 20.6335 217.062 20.4388 217.26 20.2465C217.458 20.0543 217.659 19.8645 217.861 19.6771C218.064 19.4898 218.269 19.305 218.477 19.1228C218.684 18.9408 218.894 18.7613 219.105 18.5842C219.317 18.4073 219.531 18.2331 219.747 18.0615C219.963 17.8899 220.181 17.7211 220.402 17.555C220.622 17.3889 220.844 17.2256 221.068 17.065C221.293 16.9045 221.519 16.7467 221.747 16.5919C221.975 16.437 222.205 16.285 222.437 16.1358C222.669 15.9866 222.903 15.8404 223.138 15.6971C223.374 15.5538 223.611 15.4134 223.85 15.276C224.089 15.1386 224.33 15.0042 224.572 14.8729C224.814 14.7415 225.058 14.6132 225.304 14.488C225.549 14.3627 225.796 14.2406 226.045 14.1216C231.006 11.6874 236.344 10.8245 241.822 10.9512C242.295 11.8312 242.609 12.7422 242.933 13.6857C235.562 13.6319 230.293 14.4581 224.062 18.607C222.326 19.7625 220.649 20.985 219.156 22.4524C218.976 22.6321 218.797 22.814 218.621 22.9981C218.445 23.1822 218.271 23.3684 218.1 23.5567C217.928 23.7452 217.759 23.9357 217.592 24.1284C217.425 24.3208 217.261 24.5154 217.099 24.712C216.937 24.9086 216.777 25.1073 216.62 25.3079C216.462 25.5085 216.307 25.711 216.155 25.9154C216.003 26.1197 215.853 26.3259 215.705 26.5341C215.558 26.7421 215.413 26.952 215.271 27.1638C215.129 27.3755 214.989 27.5888 214.852 27.8038C214.715 28.0191 214.581 28.2358 214.449 28.4541C214.317 28.6725 214.188 28.8926 214.062 29.1143C213.935 29.336 213.811 29.5592 213.691 29.7839C213.57 30.0084 213.451 30.2346 213.336 30.4623C213.221 30.6899 213.108 30.9188 212.998 31.149C212.888 31.3794 212.781 31.6112 212.677 31.8443C212.573 32.0773 212.471 32.3116 212.373 32.5472C212.274 32.7827 212.178 33.0194 212.086 33.2572C211.993 33.495 211.903 33.734 211.816 33.9741C211.729 34.2144 211.645 34.4556 211.564 34.6978C211.483 34.94 211.405 35.1831 211.33 35.4272C211.255 35.6713 211.183 35.9162 211.114 36.162C211.044 36.408 210.978 36.6547 210.915 36.9022C210.852 37.1497 210.792 37.3979 210.735 37.647C210.678 37.896 210.624 38.1457 210.573 38.396C210.522 38.6463 210.474 38.8973 210.429 39.1487C210.384 39.4004 210.342 39.6525 210.303 39.9049C210.265 40.1575 210.229 40.4105 210.196 40.6639C210.164 40.9173 210.134 41.1711 210.108 41.4255C210.081 41.6796 210.058 41.934 210.038 42.1887C210.018 42.4434 210 42.6984 209.986 42.9537C209.972 43.2088 209.962 43.4641 209.954 43.7196C209.946 43.975 209.941 44.2305 209.94 44.486C209.886 53.0747 213.312 60.9802 219.335 67.0303C219.777 67.4697 220.227 67.902 220.682 68.3271C223.922 71.873 231.055 75.2074 235.727 76.2058C244.635 78.1096 253.436 76.6411 261.094 71.629C261.3 71.4941 261.504 71.3565 261.707 71.2162C261.91 71.0761 262.111 70.9336 262.311 70.7886C262.51 70.6434 262.707 70.4958 262.903 70.3459C263.099 70.196 263.293 70.0435 263.485 69.8887C263.677 69.7338 263.867 69.5766 264.055 69.4172C264.243 69.2576 264.429 69.0957 264.614 68.9315C264.798 68.7673 264.98 68.6009 265.16 68.4322C265.34 68.2636 265.518 68.0928 265.694 67.9197C265.87 67.7466 266.044 67.5713 266.215 67.3939C266.387 67.2164 266.556 67.0368 266.723 66.8552C266.891 66.6736 267.056 66.4899 267.218 66.3043C267.381 66.1185 267.541 65.9308 267.7 65.7412C267.858 65.5514 268.013 65.3597 268.167 65.1661C268.32 64.9725 268.471 64.7771 268.62 64.5799C268.769 64.3825 268.915 64.1833 269.058 63.9823C269.202 63.7813 269.344 63.5786 269.482 63.3742C269.621 63.1698 269.757 62.9637 269.891 62.7559C270.025 62.548 270.156 62.3385 270.284 62.1272C270.413 61.9162 270.539 61.7035 270.663 61.4892C270.786 61.2752 270.907 61.0594 271.025 60.8421C271.143 60.6248 271.258 60.4062 271.371 60.1862C271.484 59.966 271.594 59.7445 271.701 59.5217C271.808 59.2989 271.913 59.0747 272.015 58.8492C272.116 58.624 272.216 58.3973 272.312 58.1694C272.408 57.9414 272.502 57.7123 272.592 57.4821C272.683 57.2519 272.771 57.0206 272.856 56.7883C272.941 56.556 273.023 56.3226 273.102 56.088C273.181 55.8536 273.258 55.6182 273.331 55.3819C273.405 55.1456 273.475 54.9085 273.543 54.6704C273.611 54.4323 273.675 54.1933 273.737 53.9536C273.799 53.7141 273.858 53.4737 273.914 53.2324C273.97 52.9912 274.023 52.7494 274.073 52.507C274.929 48.3598 274.943 39.1308 272.602 35.5217C272.749 34.4675 273.761 33.7062 274.312 32.8378Z" fill="#020203"/>
<path d="M238.717 0.209801C239.959 0.171937 241.513 -0.0299157 242.671 0.48197C244.256 1.1829 244.775 3.8992 245.327 5.39984L264.967 5.38874C268.196 5.38646 271.54 5.16924 274.756 5.38646C275.285 5.42205 275.769 5.50831 276.255 5.73578C276.973 6.07258 277.658 6.72112 277.884 7.50546C278.079 8.17336 277.89 8.98418 277.692 9.62902C277.29 10.9344 276.58 12.2235 276.015 13.469C275.098 15.4756 274.228 17.5217 273.186 19.4647C272.644 20.2901 272.06 21.0203 271.18 21.5006C270.466 21.8901 269.711 22.0487 268.909 22.123C267.021 22.2972 265.016 22.0643 263.112 22.06C259.645 22.0518 256.115 22.2098 252.656 22.033C252.008 22 251.247 21.9541 250.635 21.7309C249.709 21.393 248.98 20.558 248.461 19.7492C247.545 18.3214 247.035 16.5486 246.432 14.9645C245.566 12.6915 244.639 10.4413 243.79 8.16226C243.14 6.41763 242.584 4.58703 241.8 2.90247L241.722 2.74048C240.544 2.58133 237.839 2.93122 236.941 2.22916C236.634 1.98916 236.65 1.89293 236.606 1.52852C236.704 1.23841 236.812 1.03173 237.017 0.80653C237.53 0.241975 238.002 0.248805 238.717 0.209801Z" fill="#020203"/>
<path d="M246.188 7.81978L269.775 7.79045C270.801 7.78846 274.826 7.477 275.477 8.13095C275.537 9.40611 272.722 14.6269 272.05 16.17C271.604 17.237 271.066 18.7618 269.974 19.317C269.004 19.8098 252.218 19.8451 251.258 19.3637C250.385 18.9261 246.91 9.53821 246.188 7.81978Z" fill="#FCF9F2"/>
<path d="M220.683 68.3271C220.726 68.1819 220.822 67.8705 220.776 67.7096C220.771 67.6942 218.063 64.0902 217.633 63.3458C217.463 63.0453 217.298 62.742 217.139 62.4359C216.979 62.1295 216.825 61.8207 216.676 61.5095C216.526 61.198 216.383 60.8841 216.244 60.5677C216.105 60.2513 215.972 59.9326 215.844 59.6117C215.717 59.2907 215.594 58.9677 215.477 58.6425C215.36 58.3174 215.249 57.9904 215.143 57.6615C215.037 57.3326 214.937 57.0018 214.843 56.6693C214.748 56.337 214.659 56.0031 214.576 55.6677C214.492 55.3324 214.414 54.9957 214.343 54.6576C214.271 54.3194 214.204 53.9802 214.144 53.6398C214.083 53.2995 214.029 52.9583 213.98 52.6161C213.93 52.2739 213.887 51.9309 213.85 51.5872C213.813 51.2435 213.781 50.8992 213.755 50.5543C213.729 50.2096 213.709 49.8646 213.695 49.5191C213.681 49.1735 213.673 48.8279 213.671 48.4823C213.668 48.1365 213.672 47.7907 213.681 47.4451C213.858 38.4919 216.98 31.7489 223.373 25.5641C229.472 19.6635 235.925 18.076 244.231 18.2431C244.984 19.2581 245.388 20.4732 246.071 21.5282C246.68 22.4703 248.509 23.7347 248.442 24.8512C248.419 25.2208 248.187 25.5399 247.938 25.787C247.593 25.869 247.263 25.8966 247.034 26.1944C247.05 26.4922 247.035 26.4034 247.078 26.6514C247.087 26.7015 247.097 26.751 247.106 26.8008C242.73 25.2857 237.164 26.0706 233.066 28.0936C228.973 30.1147 225.649 34.3638 224.198 38.6716C222.516 43.6663 222.979 49.752 225.324 54.4581C226.47 56.7573 228.15 58.5164 230.059 60.1865C230.55 60.6155 231.254 61.0428 231.676 61.5203C231.673 61.6532 231.649 61.8073 231.699 61.9394C232.04 62.8427 236.527 65.7796 237.458 66.3018C238.361 66.8144 239.304 67.236 240.287 67.5664C244.675 69.0112 250.365 68.1403 254.43 66.045C258.947 63.717 262.288 59.8648 263.85 54.9845C265.502 49.8221 265.244 43.6413 263.329 38.5893C262.812 37.2268 262.016 36.0333 261.465 34.7154C261.308 34.3396 261.356 34.1674 261.482 33.7922C262.564 33.7472 264.109 35.9533 265.195 36.4794C265.914 36.8279 266.88 36.9802 267.669 37.0118C269.254 37.075 271.396 36.6146 272.602 35.5217C274.943 39.1308 274.929 48.3598 274.073 52.507C274.023 52.7494 273.97 52.9912 273.914 53.2324C273.858 53.4737 273.799 53.7141 273.737 53.9536C273.676 54.1933 273.611 54.4323 273.543 54.6704C273.475 54.9085 273.405 55.1456 273.332 55.3819C273.258 55.6182 273.182 55.8536 273.102 56.088C273.023 56.3226 272.941 56.556 272.856 56.7883C272.771 57.0206 272.683 57.2519 272.592 57.4821C272.502 57.7123 272.408 57.9414 272.312 58.1694C272.216 58.3973 272.117 58.624 272.015 58.8492C271.913 59.0747 271.808 59.2989 271.701 59.5217C271.594 59.7445 271.484 59.966 271.371 60.1862C271.258 60.4062 271.143 60.6248 271.025 60.8421C270.907 61.0594 270.786 61.2752 270.663 61.4892C270.539 61.7035 270.413 61.9162 270.285 62.1272C270.156 62.3385 270.025 62.548 269.891 62.7559C269.758 62.9637 269.621 63.1698 269.483 63.3742C269.344 63.5786 269.202 63.7813 269.059 63.9823C268.915 64.1833 268.769 64.3825 268.62 64.5799C268.471 64.7771 268.32 64.9725 268.167 65.1661C268.014 65.3597 267.858 65.5514 267.7 65.7412C267.542 65.9308 267.381 66.1185 267.218 66.3043C267.056 66.4899 266.891 66.6736 266.723 66.8552C266.556 67.0368 266.387 67.2164 266.215 67.3939C266.044 67.5713 265.87 67.7466 265.694 67.9197C265.518 68.0928 265.34 68.2636 265.16 68.4322C264.98 68.6009 264.798 68.7673 264.614 68.9315C264.429 69.0957 264.243 69.2576 264.055 69.4172C263.867 69.5766 263.677 69.7338 263.485 69.8887C263.293 70.0435 263.099 70.196 262.903 70.3459C262.708 70.4958 262.51 70.6434 262.311 70.7886C262.111 70.9336 261.91 71.0761 261.708 71.2162C261.505 71.3565 261.3 71.4941 261.094 71.629C253.437 76.6411 244.635 78.1096 235.727 76.2058C231.055 75.2074 223.922 71.873 220.683 68.3271Z" fill="#4D63F5"/>
<path d="M124.278 11.8702C130.518 12.0017 136.78 11.9209 143.021 11.8995L142.95 59.2071C142.941 63.4878 142.954 67.7684 142.989 72.0487C143.008 74.4211 143.23 76.9893 142.952 79.3341C136.694 79.2336 130.423 79.2957 124.163 79.2837L124.166 34.749L124.168 20.2309C124.171 17.4651 124.056 14.6261 124.278 11.8702Z" fill="#020203"/>
<path d="M126.826 14.7055C131.354 14.6649 135.883 14.6629 140.411 14.6995L140.389 18.6423C137.223 18.3579 133.917 18.0914 130.761 18.5797C131.106 26.2118 130.99 33.8469 130.973 41.4841L131.071 62.4658C131.086 65.5589 131.082 68.6521 131.061 71.7452C131.043 73.282 130.866 74.888 130.993 76.4171L126.869 76.4327L126.826 14.7055Z" fill="#FCF9F2"/>
<path d="M130.761 18.5796C133.917 18.0914 137.223 18.3579 140.389 18.6423C140.206 24.757 140.29 30.8868 140.291 37.0041L140.235 61.3446C140.224 66.3328 140.483 71.428 140.21 76.4023C137.138 76.4258 134.066 76.4307 130.993 76.4171C130.866 74.888 131.043 73.282 131.061 71.7452C131.082 68.6521 131.086 65.5589 131.072 62.4658L130.973 41.4841C130.99 33.8468 131.106 26.2118 130.761 18.5796Z" fill="#4D63F5"/>
<path d="M169.244 11.885L207.437 11.8961C207.315 12.8014 207.223 13.6444 206.81 14.4735C205.315 17.4716 203.362 20.3787 201.617 23.2424L193.291 36.9691C188.236 45.2393 183.55 53.727 178.363 61.9234C187.642 62.1947 196.959 61.8941 206.246 62.0609C206.467 67.7794 206.223 73.5667 206.193 79.292L187.148 79.2857L146.837 79.3019C149.973 73.6646 153.376 68.1987 156.705 62.6767L168.971 42.0199C170.258 39.7974 171.569 37.5891 172.904 35.395C174.141 33.3743 175.494 31.3666 176.454 29.1938C167.78 29.2533 159.105 29.2589 150.431 29.2105C150.089 23.6937 150.252 17.4981 150.464 11.959C156.692 11.6974 163.005 11.8992 169.244 11.885Z" fill="#020203"/>
<path d="M153.117 14.7052C159.652 14.4786 166.268 14.7049 172.813 14.7066L203.507 14.644C202.757 16.1518 201.722 17.5414 200.785 18.9361C200.187 18.4965 199.541 18.4516 198.822 18.404C195.16 18.1617 191.383 18.3474 187.707 18.3576C181.438 18.3388 175.168 18.3746 168.899 18.4649C166.637 18.5021 164.376 18.5134 162.114 18.4988C160.734 18.4971 159.276 18.4037 157.91 18.6019C157.499 18.6617 157.235 18.6742 156.932 18.9626C156.451 20.9834 156.838 24.2295 157.026 26.3431L153.141 26.3496C153.046 22.5045 152.939 18.5452 153.117 14.7052Z" fill="#FCF9F2"/>
<path d="M151.567 76.4057C161.23 60.9147 170.204 44.9831 179.843 29.4747C180.091 30.0373 180.161 30.4088 180.769 30.642C181.769 31.0258 183.041 30.9759 184.107 31.0904L176.674 43.686C175.438 45.7902 174.32 47.9448 173.044 50.0285L161.037 69.7204C159.962 71.5177 158.757 73.2387 157.729 75.0639C157.495 75.4799 157.303 75.7677 157.346 76.2636L157.149 76.4043C155.289 76.4418 153.428 76.4423 151.567 76.4057Z" fill="#FCF9F2"/>
<path d="M157.026 26.343C156.838 24.2294 156.451 20.9833 156.933 18.9625C157.235 18.6741 157.499 18.6616 157.91 18.6018C159.276 18.4037 160.734 18.4971 162.114 18.4988C164.376 18.5134 166.637 18.5021 168.899 18.4649C175.168 18.3745 181.438 18.3388 187.707 18.3576C191.383 18.3473 195.16 18.1617 198.823 18.404C199.541 18.4515 200.187 18.4965 200.785 18.9361C194.451 29.7694 188.027 40.5488 181.514 51.2743C180.147 53.565 178.748 55.8354 177.317 58.0857C175.887 60.3029 174.21 62.5383 173.159 64.9628L177.71 64.9318C180.989 64.7393 184.298 64.8435 187.582 64.8569L203.273 64.9196L203.264 67.6618C203.355 70.55 203.439 73.5023 203.304 76.39C193.874 76.5922 184.412 76.4259 174.979 76.4222L163.118 76.4259C161.142 76.4245 159.121 76.509 157.149 76.4043L157.346 76.2636C157.303 75.7677 157.495 75.4798 157.729 75.0639C158.757 73.2387 159.962 71.5177 161.037 69.7204L173.043 50.0285C174.32 47.9447 175.438 45.7902 176.674 43.686L184.107 31.0904C183.041 30.9759 181.769 31.0257 180.769 30.642C180.161 30.4088 180.091 30.0373 179.843 29.4747C180.421 28.4589 180.941 27.4104 181.47 26.3681C173.35 26.5981 165.154 26.3593 157.026 26.343Z" fill="#4D63F5"/>
<path d="M177.711 64.9318C180.989 64.7394 184.299 64.8436 187.582 64.857L203.273 64.9196L203.264 67.6618C203.273 67.9061 203.251 68.0422 203.156 68.2674C202.045 68.2893 200.879 68.0416 199.735 68.053C191.65 68.1327 183.579 68.3325 175.49 68.3061C176.152 67.2029 177.309 66.1335 177.711 64.9318Z" fill="#FCF9F2"/>
<path d="M0.86299 11.7455C7.1722 11.637 13.5032 11.7622 19.8146 11.7745C24.3313 11.783 29.1517 11.4269 33.6088 12.1489C37.1481 12.7222 40.8113 13.9923 43.8094 15.9951C48.9403 19.4232 52.8982 25.1439 54.1118 31.2475C55.398 37.7167 54.329 44.5668 50.6219 50.0612C46.7856 55.7469 41.3789 58.8131 34.7536 60.0817C29.4529 60.8999 24.0431 60.4011 18.7028 60.6092C18.5417 66.8384 18.7288 73.0798 18.6143 79.3119C12.4965 79.5029 6.34245 79.393 0.220987 79.3725C-0.0561924 74.3012 0.0694308 12.4225 0.255943 12.0131C0.294517 11.9285 0.368868 11.8656 0.425345 11.7919L0.86299 11.7455Z" fill="#020203"/>
<path d="M2.82914 14.6035L20.6076 14.5708C23.9306 14.5628 27.3348 14.4074 30.6464 14.6662C36.7449 15.143 42.4868 17.5986 46.506 22.3177L46.1228 22.5247C43.2447 21.1778 40.7633 19.7307 37.6182 18.9651C31.3303 17.4346 24.5938 18.0777 18.1857 18.0507C14.3721 18.0347 10.3511 17.686 6.56907 18.2568C6.8126 21.9291 6.63816 25.6897 6.6719 29.3756C6.76396 37.469 6.79799 45.5627 6.77397 53.6566C6.76433 58.4456 6.77956 63.2344 6.81964 68.0231C6.83548 70.7818 6.98811 73.6683 6.76806 76.4122L2.86814 76.4316C2.74379 73.8391 2.80974 71.2205 2.80739 68.624L2.80906 54.9984L2.82914 14.6035Z" fill="#FCF9F2"/>
<path d="M6.56909 18.2568C10.3512 17.686 14.3722 18.0348 18.1857 18.0507C24.5938 18.0778 31.3303 17.4346 37.6182 18.9652C40.7633 19.7307 43.2447 21.1778 46.1228 22.5247L46.506 22.3178C50.2609 26.2685 51.7702 31.881 51.6432 37.2268C51.5075 42.9264 49.4127 47.9941 45.2688 51.9212C39.459 57.4269 32.944 57.6789 25.4722 57.674L15.8922 57.6459C15.762 63.9192 15.9655 70.2047 15.7984 76.4746L6.76808 76.4123C6.98813 73.6684 6.8355 70.7818 6.81966 68.0231C6.77958 63.2341 6.76435 58.4453 6.77399 53.6567C6.79806 45.5627 6.76404 37.4691 6.67192 29.3757C6.63818 25.6897 6.81262 21.9291 6.56909 18.2568Z" fill="#4D63F5"/>
<path d="M37.7954 31.0528C38.6333 31.1231 40.1984 32.8564 40.7518 33.5035C42.5363 35.59 43.0856 38.3485 42.8463 41.0414C42.6339 43.4277 41.434 45.4366 39.622 46.9366C35.4342 50.4031 29.8007 50.1028 24.694 50.1079C22.4578 50.1102 20.1642 50.2024 17.9344 50.0313C16.8575 48.9899 16.1435 48.3823 16.1066 46.8045C16.1038 46.6831 16.102 46.5616 16.1013 46.4401C20.5514 46.3758 29.4788 47.0021 33.2385 45.4084C33.3812 45.3471 33.5223 45.2824 33.6618 45.2142C33.8012 45.1459 33.9389 45.0741 34.075 44.999C34.211 44.924 34.3449 44.8456 34.4769 44.7638C34.6091 44.682 34.7391 44.5969 34.8669 44.5085C34.9949 44.4202 35.1206 44.3288 35.2439 44.2343C35.3674 44.1398 35.4884 44.0421 35.607 43.9413C35.7256 43.8407 35.8416 43.7373 35.9551 43.631C36.0686 43.5245 36.1794 43.4153 36.2874 43.3033C36.3956 43.1915 36.5009 43.077 36.6033 42.9597C36.7059 42.8426 36.8054 42.7229 36.902 42.6007C36.9987 42.4787 37.0922 42.3542 37.1825 42.2275C37.273 42.1005 37.3603 41.9714 37.4444 41.8403C37.5285 41.7091 37.6094 41.576 37.687 41.4408C37.7645 41.3055 37.8387 41.1684 37.9096 41.0294C37.9803 40.8907 38.0476 40.7502 38.1115 40.6078C38.1755 40.4655 38.2358 40.3217 38.2925 40.1765C39.4877 37.1937 39.0004 33.9334 37.7954 31.0528Z" fill="#FCF9F2"/>
<path d="M15.8508 26.1179C20.4204 26.2782 26.1382 25.6214 30.5308 26.2952C33.862 26.8065 35.834 28.3581 37.7953 31.0528C39.0003 33.9334 39.4876 37.1937 38.2924 40.1765C38.2357 40.3217 38.1754 40.4655 38.1115 40.6078C38.0475 40.7502 37.9802 40.8907 37.9095 41.0295C37.8386 41.1684 37.7644 41.3055 37.687 41.4409C37.6093 41.576 37.5284 41.7091 37.4443 41.8403C37.3602 41.9714 37.2729 42.1005 37.1824 42.2275C37.0921 42.3543 36.9986 42.4787 36.9019 42.6007C36.8053 42.7229 36.7058 42.8426 36.6032 42.9597C36.5009 43.077 36.3956 43.1916 36.2873 43.3033C36.1793 43.4153 36.0685 43.5246 35.955 43.631C35.8415 43.7373 35.7255 43.8408 35.6069 43.9414C35.4883 44.0421 35.3673 44.1398 35.2438 44.2343C35.1205 44.3288 34.9948 44.4202 34.8668 44.5085C34.739 44.5969 34.609 44.682 34.4768 44.7638C34.3448 44.8456 34.2109 44.924 34.0749 44.999C33.9388 45.0742 33.8011 45.1459 33.6618 45.2142C33.5222 45.2824 33.3811 45.3471 33.2384 45.4084C29.4787 47.0021 20.5514 46.3758 16.1012 46.4401C15.4838 44.7274 15.8419 29.1886 15.8508 26.1179Z" fill="#020203"/>
<path d="M18.9926 29.1032C22.2544 28.9361 25.7372 28.8476 28.9948 29.0357C31.089 29.157 33.2135 29.9949 34.6049 31.6211C35.8971 33.1311 36.2019 35.0813 36.058 37.009C35.9089 39.0058 35.052 40.4558 33.5752 41.7389C32.5387 42.5005 31.4442 43.0007 30.1883 43.2643C27.5848 43.811 21.5474 43.4098 18.5739 43.368C18.56 40.1471 18.5626 36.9262 18.5819 33.7053C18.5902 32.3744 18.4397 30.8148 18.6877 29.5194C18.7504 29.192 18.7449 29.2675 18.9926 29.1032Z" fill="#FCF9F2"/>
<path d="M63.1537 11.8861C69.8278 11.8241 76.502 11.8065 83.1762 11.8335C87.435 11.8363 91.8876 11.5844 96.1147 12.1316C99.2066 12.5318 102.114 13.2675 104.879 14.7494C110.88 17.965 115.086 23.3714 117.01 29.9095C118.666 35.5368 118.269 42.0721 115.455 47.2627C113.587 50.7084 109.58 54.6098 105.776 55.7418C108.514 60.455 110.91 65.4648 113.332 70.3511C114.798 73.3099 116.432 76.2477 117.711 79.2917C113.882 79.4104 110.033 79.3432 106.202 79.3489C103.36 79.3763 100.518 79.3759 97.6769 79.3478C96.5067 76.8385 95.1585 74.4012 93.9297 71.9183C91.7071 67.4272 89.5292 62.8333 86.9715 58.5256L79.332 58.435L79.2896 79.2863L60.658 79.3452L60.6659 11.9277L63.1537 11.8861Z" fill="#020203"/>
<path d="M89.405 56.8276C89.5775 56.8424 89.756 56.8248 89.9226 56.8721C90.3092 56.9817 94.5855 61.4375 95.0996 62.0547C97.3245 64.7263 98.8282 68.0578 100.338 71.1812C100.939 72.4262 101.436 73.9941 102.381 75.005C102.732 75.3817 103.367 75.9172 103.485 76.4222C102.154 76.4424 100.82 76.4128 99.4894 76.4026L89.405 56.8276Z" fill="#FCF9F2"/>
<path d="M63.3853 14.7473C68.0233 14.4825 72.7787 14.72 77.4275 14.7322C83.6357 14.7485 94.0261 14.0811 99.5993 15.7173C99.9274 15.8137 100.253 15.9182 100.576 16.0307C100.899 16.1431 101.219 16.2633 101.536 16.3914C101.853 16.5194 102.167 16.6551 102.478 16.7986C102.788 16.9419 103.096 17.0927 103.399 17.2512C103.702 17.4097 104.002 17.5754 104.297 17.7483C104.592 17.9214 104.883 18.1016 105.17 18.2889C105.457 18.4761 105.739 18.6703 106.016 18.8714C106.293 19.0724 106.565 19.2801 106.833 19.4944C107.1 19.7088 107.362 19.9297 107.619 20.1568C107.875 20.384 108.126 20.6173 108.371 20.8566C108.617 21.0962 108.856 21.3415 109.09 21.5926C109.324 21.8437 109.551 22.1004 109.772 22.3627C109.993 22.625 110.208 22.8925 110.416 23.1652C110.625 23.438 110.826 23.7157 111.021 23.9983C111.216 24.2809 111.404 24.568 111.585 24.8598C111.766 25.1517 111.94 25.4478 112.106 25.748L111.857 26.0754C110.829 25.5066 109.981 23.7919 109.059 22.9483C108.304 22.2571 107.291 21.7899 106.366 21.3734C103.611 20.1329 100.274 18.9466 97.2798 18.4985C95.0125 18.1594 70.0332 18.0165 68.2518 18.4498C67.9271 18.5287 67.7314 18.6693 67.5801 18.981C67.305 19.5476 67.346 20.6545 67.3335 21.2757C67.2252 26.6761 67.4246 32.1062 67.4509 37.5092C67.5761 50.4532 67.559 63.3971 67.3997 76.3408L63.4763 76.3447C63.428 70.0218 63.4208 63.699 63.4545 57.3762C63.5107 43.1664 63.4876 28.9567 63.3853 14.7473Z" fill="#FCF9F2"/>
<path d="M67.3997 76.3408C67.559 63.3971 67.5761 50.4533 67.4509 37.5092C67.4246 32.1062 67.2252 26.6762 67.3335 21.2758C67.3459 20.6545 67.3049 19.5476 67.5801 18.9811C67.7314 18.6693 67.9271 18.5287 68.2518 18.4498C70.0332 18.0165 95.0125 18.1595 97.2797 18.4985C100.274 18.9466 103.611 20.133 106.366 21.3734C107.291 21.7899 108.304 22.2571 109.059 22.9483C109.981 23.7919 110.829 25.5066 111.856 26.0755L112.106 25.7481C114.86 30.2178 115.635 36.2619 114.429 41.3506C113.311 46.0641 110.685 49.5576 106.569 52.0462C105.129 52.9168 103.614 53.5915 102.062 54.2309C103.261 57.1881 104.938 59.9738 106.363 62.8271C108.629 67.3657 110.767 72.0891 113.335 76.4575C110.071 76.4712 106.742 76.5913 103.485 76.4222C103.367 75.9172 102.733 75.3817 102.381 75.005C101.436 73.9941 100.94 72.4262 100.338 71.1812C98.8284 68.0578 97.3247 64.7263 95.0998 62.0547C94.5857 61.4375 90.3094 56.9817 89.9228 56.8721C89.7562 56.8248 89.5777 56.8424 89.4052 56.8276L88.5851 55.5368L76.6053 55.5237C76.5262 62.4407 76.6096 69.3612 76.5004 76.277C73.4769 76.328 70.4203 76.4396 67.3997 76.3408Z" fill="#4D63F5"/>
<path d="M100.649 31.0343C101.667 31.3164 103.597 33.7896 104.159 34.7889C105.3 36.8196 105.556 39.5126 104.88 41.752C104.155 44.1557 102.193 45.9553 100.025 47.0722C99.7104 47.2335 99.3898 47.3813 99.0631 47.5154C98.7363 47.6498 98.4046 47.7701 98.0679 47.8764C97.7311 47.9827 97.3906 48.0747 97.0464 48.1523C96.7019 48.2299 96.3549 48.293 96.0053 48.3414C93.4824 48.7052 90.824 48.5136 88.2793 48.4994C84.8112 48.4797 81.3562 48.5298 77.8884 48.4014C77.7091 47.2191 77.34 46.2884 76.769 45.2453C79.2453 45.1712 81.7137 45.1092 84.1913 45.0986C87.9473 45.0827 92.285 45.608 95.8461 44.2511C98.011 43.426 99.7961 41.8337 100.749 39.6957C101.996 36.8996 101.709 33.8266 100.649 31.0343Z" fill="#FCF9F2"/>
<path d="M76.5531 26.1717C79.8804 26.1922 83.2077 26.1881 86.535 26.1594C88.9276 26.1509 91.4143 25.9991 93.7721 26.4555C96.7662 27.0351 98.9577 28.4848 100.649 31.0343C101.709 33.8266 101.996 36.8996 100.749 39.6956C99.7962 41.8337 98.0111 43.426 95.8462 44.2511C92.2851 45.608 87.9474 45.0827 84.1914 45.0986C81.7137 45.1092 79.2454 45.1712 76.7691 45.2453C76.2971 44.4951 76.52 28.5637 76.5531 26.1717Z" fill="#020203"/>
<path d="M79.4178 29.175L86.4139 29.1613C89.7949 29.1565 94.2799 28.6611 96.9963 31.1468C98.1569 32.209 98.7327 33.6723 98.806 35.2325C98.897 37.1755 98.0925 38.7465 96.8518 40.1631C95.9898 40.9654 95.063 41.4227 93.9315 41.7267C90.9742 42.5213 82.8774 42.137 79.3225 42.1609L79.4178 29.175Z" fill="#FCF9F2"/>
</g>
<defs>
<clipPath id="clip0_321_602">
<rect width="278" height="80" fill="white"/>
</clipPath>
</defs>
</svg>
